<?xml version="1.0" encoding="utf-8"?>
<!-- Generator: Adobe Illustrator 26.4.1, SVG Export Plug-In . SVG Version: 6.00 Build 0)  -->
<svg version="1.1" id="图层_1" xmlns="http://www.w3.org/2000/svg" xmlns:xlink="http://www.w3.org/1999/xlink" x="0px" y="0px"
	 viewBox="0 0 42.4 42.1" style="enable-background:new 0 0 42.4 42.1;" xml:space="preserve">
<style type="text/css">
	.st0{fill:#FFFFFF;}
</style>
<rect x="1.9" y="1.8" width="38.5" height="38.5"/>
<path id="路径_120" class="st0" d="M13.5,17.5c-2.7,0-5,2.2-5,5c0,0.2,0.1,0.3,0.3,0.3c0.2,0,0.3-0.1,0.3-0.3l0,0
	c0-2.4,2-4.4,4.4-4.4c0.2,0,0.3-0.1,0.3-0.3C13.8,17.7,13.7,17.5,13.5,17.5L13.5,17.5z"/>
<path id="路径_121" class="st0" d="M9.1,23.7c-0.2,0-0.3,0.1-0.3,0.3l0,0c0,0.2,0.1,0.3,0.3,0.3c0.2,0,0.3-0.1,0.3-0.3l0,0
	C9.4,23.8,9.3,23.7,9.1,23.7C9.1,23.7,9.1,23.7,9.1,23.7z"/>
<path class="st0" d="M25.7,30.3c-0.2,0-0.3-0.1-0.3-0.3c0,0,0-4.6,0-5.3h-0.4c-0.1,0-0.2-0.1-0.2-0.1c-0.1-0.1-0.1-0.2,0-0.3
	l1.3-2.2c0.1-0.1,0.1-0.1,0.2-0.1c0,0,0,0,0,0c0.1,0,0.2,0.1,0.2,0.1l1.3,2.3c0.1,0.1,0.1,0.2,0,0.3c-0.1,0.1-0.1,0.1-0.2,0.1h-0.5
	v3.7h3.7c2.2,0,4-1.8,4-4c0-0.1,0-0.3,0-0.4c0,0,0-0.2,0-0.2c0-0.1,0-0.3,0-0.4c0-2.6-2.1-4.8-4.7-5c-1.1,0.1-2.2,0.5-3,1.2
	c-0.2,0.1-0.4,0.2-0.6,0.2c-0.3,0-0.5-0.1-0.7-0.3c-0.3-0.4-0.3-1,0.1-1.3c0.8-0.6,1.7-1.1,2.6-1.4c0.1-0.3,0.1-0.7,0.1-1.1
	c0.1-3.3-2.5-6-5.8-6.1l-0.2,0c-3.2,0-5.8,2.4-6,5.6c2.8,1.3,4.6,4.1,4.6,7.1c0,0.5-0.4,0.8-0.8,0.9c0,0-0.1,0-0.1,0
	c-0.5,0-0.9-0.4-0.9-0.8c0-2.7-1.9-5.1-4.5-5.8l-0.1,0c-0.1,0-0.2,0-0.3-0.1c-0.4-0.1-0.7-0.1-1.1-0.1c-2,0-3.9,1-5,2.7
	c-0.9,1.3-1.2,2.9-0.9,4.5c0.3,1.6,1.2,2.9,2.6,3.8c0,0,0.1,0.1,0.1,0.1c0.7,0.6,1.6,0.9,2.6,0.9h9.4c0,0,0-7.4,0-8.2h-0.4
	c-0.1,0-0.2-0.1-0.2-0.1c-0.1-0.1-0.1-0.2,0-0.3l1.3-2.2c0.1-0.1,0.1-0.1,0.2-0.1c0,0,0,0,0,0c0.1,0,0.2,0.1,0.2,0.1l1.3,2.3
	c0.1,0.1,0.1,0.2,0,0.3c-0.1,0.1-0.1,0.1-0.2,0.1h-0.5c0,1.6,0,9.6,0,9.8c0,0.2-0.1,0.3-0.3,0.3H12.8c-1.4,0-2.7-0.5-3.7-1.3
	c-2.2-1.4-3.5-3.9-3.5-6.5c0-4.3,3.5-7.8,7.9-7.8c0.1,0,0.2,0,0.3,0c0.1,0,0.1,0,0.2,0c0.3,0,0.6,0,0.9,0.1c0.5-3.9,3.8-6.8,7.8-6.8
	c2.1,0,4.1,0.8,5.6,2.3c1.5,1.5,2.3,3.5,2.3,5.6c0,0.2,0,0.5,0,0.7c0,0,0.1,0,0.1,0c0.1,0,0.2,0.1,0.3,0.1c3.4,0.5,5.9,3.4,5.9,6.8
	c0,0.2,0,0.4,0,0.5c0,0.1,0,0.3,0,0.5c0,3.2-2.6,5.9-5.9,5.9C30.9,30.3,25.7,30.3,25.7,30.3z"/>
<path class="st0" d="M34.4,12.2c-0.2,0-0.3-0.1-0.3-0.3c0-1.7,0-3.3,0-3.9h-0.4c-0.1,0-0.2-0.1-0.2-0.1s-0.1-0.2,0-0.3l1.3-2.2
	c0.1-0.1,0.1-0.1,0.2-0.1c0,0,0,0,0,0c0.1,0,0.2,0.1,0.2,0.1l1.3,2.3c0.1,0.1,0.1,0.2,0,0.3C36.5,8,36.4,8,36.3,8h-0.5l0,3.9
	c0,0.2-0.1,0.3-0.3,0.3H34.4z"/>
</svg>
