<?xml version="1.0" encoding="utf-8"?>
<!-- Generator: Adobe Illustrator 26.4.1, SVG Export Plug-In . SVG Version: 6.00 Build 0)  -->
<svg version="1.1" id="图层_1" xmlns="http://www.w3.org/2000/svg" xmlns:xlink="http://www.w3.org/1999/xlink" x="0px" y="0px"
	 viewBox="0 0 14.2 14.2" style="enable-background:new 0 0 14.2 14.2;" xml:space="preserve">
<style type="text/css">
	.st0{fill:#666666;}
</style>
<g>
	<path class="st0" d="M6.6,11.7H3.1l2.9-2.9c0.1-0.1,0.1-0.4,0-0.6c-0.1-0.2-0.4-0.2-0.6,0l-2.9,2.9V7.4C2.5,7.2,2.2,7,2,7
		S1.6,7.2,1.6,7.4v4c0,0.6,0.4,1.3,1,1.3h3.9c0.2,0,0.4-0.2,0.4-0.4C7,11.9,6.8,11.7,6.6,11.7z"/>
	<path class="st0" d="M11.8,1.6H7.7C7.5,1.6,7.3,1.8,7.3,2s0.2,0.4,0.4,0.4h3.5L8.2,5.2c-0.1,0.1-0.1,0.4,0,0.6C8.4,6,8.7,6,8.9,5.9
		L11.7,3v3.5c0,0.2,0.2,0.4,0.4,0.4s0.4-0.2,0.4-0.4V2.7C12.6,2,12.3,1.6,11.8,1.6L11.8,1.6z"/>
</g>
</svg>
