<?xml version="1.0" standalone="no"?><!DOCTYPE svg PUBLIC "-//W3C//DTD SVG 1.1//EN" "http://www.w3.org/Graphics/SVG/1.1/DTD/svg11.dtd"><svg t="1770333507161" class="icon" viewBox="0 0 1024 1024" version="1.1" xmlns="http://www.w3.org/2000/svg" p-id="2744" xmlns:xlink="http://www.w3.org/1999/xlink" width="200" height="200"><path d="M513.132611 1023.998769a511.999385 511.999385 0 1 1 510.860719-511.999384 511.435181 511.435181 0 0 1-510.860719 511.999384zM654.132221 287.230926a156.315173 156.315173 0 0 0-137.08096 75.982839A156.284399 156.284399 0 0 0 379.990818 287.230926c-90.795747 0-145.04136 79.19367-145.041359 155.761228 0 181.324781 262.611133 338.040026 273.813138 344.677112a16.290097 16.290097 0 0 0 16.577328 0c11.202006-6.637086 273.813139-163.352331 273.813139-344.677112C799.153064 366.424596 744.907452 287.230926 654.132221 287.230926z" fill="#2CC2F9" p-id="2745"></path></svg>