<?xml version="1.0" encoding="utf-8"?>
<!-- Generator: Adobe Illustrator 26.4.1, SVG Export Plug-In . SVG Version: 6.00 Build 0)  -->
<svg version="1.1" id="图层_1" xmlns="http://www.w3.org/2000/svg" xmlns:xlink="http://www.w3.org/1999/xlink" x="0px" y="0px"
	 viewBox="0 0 110.2 110.2" style="enable-background:new 0 0 110.2 110.2;" xml:space="preserve">
<style type="text/css">
	.st0{fill:#131415;}
	.st1{fill:#FFFFFF;}
</style>
<path class="st0" d="M17.6,55.1c0,20.7,16.8,37.5,37.5,37.5s37.5-16.8,37.5-37.5c0,0,0,0,0,0c0-20.7-16.8-37.5-37.5-37.5
	S17.6,34.4,17.6,55.1C17.6,55.1,17.6,55.1,17.6,55.1z"/>
<path class="st1" d="M78.2,54.1L60.5,69.7c-1.5,1.4-4,0.3-4-1.8v-7.9c-0.6,0-1.2-0.1-1.8-0.1c-8.1,0-15.2,3.8-19,9.4
	c-0.8,1.1-2.5,0.7-2.7-0.7c-0.1-0.8-0.1-1.5-0.1-2.3c0-11.8,10.2-21.6,23.6-23.3v-7.9c0-2.1,2.5-3.2,4-1.8l17.8,17
	C79.2,51.5,79.2,53,78.2,54.1C78.3,54,78.3,54.1,78.2,54.1L78.2,54.1z"/>
</svg>
